<svg id="Capa_1" enable-background="new -70 -70 651.858 651.858" height="29" viewBox="-70 -70 651.858 651.858" width="29" xmlns="http://www.w3.org/2000/svg"><g>
<path fill="#fff" d="m361.66 43.576c-28.327-28.128-65.83-43.576-105.721-43.576-.361 0-.729.001-1.09.004-38.898.274-75.738 15.494-103.734 42.857-28.004 27.371-44.05 63.855-45.182 102.733-1.22 41.9 15.274 82.693 45.252 111.917 12.989 12.664 20.143 29.299 20.143 46.843v135.461h25.933v27.043c0 24.813 20.187 45 45 45h27.333c24.813 0 45-20.187 45-45v-27.043h25.934v-135.463c0-17.317 7.298-34.347 20.022-46.724 29.301-28.5 45.438-66.702 45.438-107.568 0-40.283-15.743-78.1-44.328-106.484zm-77.065 423.282c0 8.271-6.729 15-15 15h-27.333c-8.271 0-15-6.729-15-15v-27.043h57.333zm25.933-57.043h-109.2v-59.381h109.2zm-54.6-199.291c-21.321 0-38.667-17.346-38.667-38.667s17.346-38.667 38.667-38.667 38.667 17.346 38.667 38.667-17.346 38.667-38.667 38.667zm83.706 25.599c-18.497 17.991-29.105 42.86-29.105 68.229v16.082h-39.6v-81.58c30.67-6.864 53.667-34.286 53.667-66.996 0-37.863-30.804-68.667-68.667-68.667s-68.667 30.804-68.667 68.667c0 32.71 22.997 60.133 53.667 66.996v81.58h-39.6v-16.081c0-25.329-10.644-50.232-29.202-68.324-24.339-23.727-37.197-55.534-36.207-89.563.904-31.067 13.748-60.242 36.164-82.151 22.415-21.908 51.883-34.093 82.977-34.313 32.201-.254 62.592 12.152 85.461 34.86 22.871 22.71 35.467 52.967 35.467 85.197-.001 32.696-12.912 63.261-36.355 86.064z"/></g></svg>